#!OML:ASF \\sashay\E\Suitcase\Project 1\Capture day 1\Session 1\Male1.ASF
:FULLY-SPECIFIED
:DEGREES
255
root -0.0738255 17.315 -26.9817 11.3481 -1.37547 -2.91423
lowerback 1.68 1.26002 -0.053248
upperback 0.272071 1.69265 1.82213
thorax -0.719404 0.848385 1.85723
lowerneck -17.1101 0.587191 -2.15498
upperneck 13.5313 1.84632 -3.00149
head 6.96449 0.495781 -0.426073
rclavicle -9.93923e-016 1.33186e-014
rhumerus -39.9711 -33.7562 -60.2421
rradius 14.1755
rwrist 4.85963
rhand -15.5024 16.4468
rfingers 7.12502
rthumb 10.6801 -13.2618
lclavicle -9.93923e-016 1.33186e-014
lhumerus -37.2908 10.1205 81.6133
lradius 31.6358
lwrist -5.39387
lhand -3.82364 40.98
lfingers 7.12502
lthumb 21.9233 69.7578
rfemur 14.2918 0.938577 28.2206
rtibia 5.55868
rfoot -7.38688 -10.5394
rtoes -2.59418
lfemur -37.4746 -1.31624 -19.6764
ltibia 24.9418
lfoot -8.73563 0.510641
ltoes 6.57233
256
root -0.0654278 17.3179 -26.8426 11.2417 -0.766899 -2.67194
lowerback 1.70466 1.10774 -0.153785
upperback 0.103105 1.4894 1.68306
thorax -0.898375 0.748416 1.77326
lowerneck -16.5392 0.409495 -2.16194
upperneck 13.2509 1.55877 -2.89714
head 6.77384 0.377981 -0.422563
rclavicle 4.77083e-015 1.27222e-014
rhumerus -40.1815 -32.9012 -60.7787
rradius 14.5892
rwrist 3.88079
rhand -15.6429 16.1164
rfingers 7.12502
rthumb 10.5447 -13.5991
lclavicle 4.77083e-015 1.27222e-014
lhumerus -37.5684 10.0442 81.3488
lradius 31.4641
lwrist -5.50359
lhand -3.59886 39.9921
lfingers 7.12502
lthumb 22.1391 68.7445
rfemur 12.6305 0.261597 27.9955
rtibia 9.67911
rfoot -8.01443 -10.4211
rtoes -2.72678
lfemur -36.9232 -1.66003 -19.9208
ltibia 24.8065
lfoot -8.14451 -0.310829
ltoes 4.38301
257
root -0.0629566 17.3224 -26.7188 10.8426 -0.424108 -2.52315
lowerback 1.83545 0.967573 -0.183132
upperback 0.327528 1.29815 1.50885
thorax -0.73222 0.65081 1.61595
lowerneck -17.0348 0.491168 -1.99527
upperneck 13.6735 1.6455 -2.80638
head 6.9952 0.423848 -0.410476
rclavicle 8.19987e-016 -6.36111e-015
rhumerus -40.1215 -33.4011 -60.8713
rradius 14.719
rwrist 3.86501
rhand -15.0406 16.6348
rfingers 7.12502
rthumb 11.1256 -13.0502
lclavicle 8.19987e-016 -6.36111e-015
lhumerus -36.9924 10.6964 80.8161
lradius 30.8566
lwrist -6.20004
lhand -3.05952 40.8104
lfingers 7.12502
lthumb 22.6568 69.5005
rfemur 11.8284 -0.176481 27.8221
rtibia 12.6207
rfoot -7.80579 -10.378
rtoes -2.44353
lfemur -36.1357 -1.27962 -20.2715
ltibia 24.7863
lfoot -8.08951 -1.46559
ltoes 7.0299
258
root -0.0453014 17.3278 -26.584 10.6591 -0.0261625 -2.05067
lowerback 1.91143 0.913402 -0.52519
upperback 0.278483 1.21855 1.34576
thorax -0.826198 0.612431 1.64083
lowerneck -16.9238 0.3752 -1.84681
upperneck 13.6821 1.5047 -3.12897
head 6.98298 0.335419 -0.554882
rclavicle 2.39784e-014 1.8487e-014
rhumerus -40.3274 -33.1159 -60.9059
rradius 14.8994
rwrist 3.63746
rhand -15.2423 16.2474
rfingers 7.12502
rthumb 10.9311 -13.4481
lclavicle 2.39784e-014 1.8487e-014
lhumerus -36.9366 10.7774 80.7149
lradius 30.4745
lwrist -6.43378
lhand -3.10722 41.4045
lfingers 7.12502
lthumb 22.6111 70.1001
rfemur 10.9793 -0.622762 27.2464
rtibia 15.2122
rfoot -7.43528 -10.2133
rtoes -3.65196
lfemur -35.5494 -1.29617 -20.945
ltibia 24.7557
lfoot -8.58611 -1.82986
ltoes 8.09821
259
root -0.0307966 17.3449 -26.4448 10.4413 0.360818 -1.91173
lowerback 1.93804 0.89505 -0.586065
upperback 0.304795 1.19196 1.27127
thorax -0.812939 0.598999 1.59914
lowerneck -17.0491 0.334368 -2.02747
upperneck 13.9947 1.45309 -2.80844
head 7.10139 0.323595 -0.427135
rclavicle 1.24737e-014 5.66536e-015
rhumerus -40.4237 -33.2171 -60.7787
rradius 15.0281
rwrist 3.21498
rhand -14.6899 16.791
rfingers 7.12502
rthumb 11.4638 -12.8756
lclavicle 1.24737e-014 5.66536e-015
lhumerus -36.9732 10.7286 80.6442
lradius 30.532
lwrist -6.39571
lhand -3.54742 41.4814
lfingers 7.12502
lthumb 22.1885 70.2279
rfemur 10.2291 -1.12278 26.9857
rtibia 17.8064
rfoot -6.94667 -9.89161
rtoes -3.96867
lfemur -34.73 -1.59021 -21.105
ltibia 24.7015
lfoot -8.99897 -2.43656
ltoes 7.74735
260
root -0.0128422 17.3603 -26.3041 10.3019 0.448521 -1.50069
lowerback 1.71318 0.976811 -1.00722
upperback 0.346715 1.29219 1.15452
thorax -0.653897 0.648778 1.71745
lowerneck -16.6033 0.165425 -2.1259
upperneck 13.7649 1.2234 -2.80003
head 6.94909 0.217281 -0.433056
rclavicle -9.01985e-015 -3.97569e-016
rhumerus -40.8441 -33.9652 -60.0089
rradius 14.9189
rwrist 3.898
rhand -15.1714 16.8866
rfingers 7.12502
rthumb 10.9995 -12.8052
lclavicle -9.01985e-015 -3.97569e-016
lhumerus -36.5618 11.1825 80.501
lradius 29.9474
lwrist -7.01522
lhand -3.23181 40.2297
lfingers 7.12502
lthumb 22.4915 68.9399
rfemur 9.2834 -1.60848 26.2489
rtibia 20.3494
rfoot -6.05231 -9.57017
rtoes -3.73107
lfemur -33.9258 -1.50113 -21.7524
ltibia 24.5486
lfoot -9.5252 -2.97414
ltoes 7.70825
261
root 0.00789585 17.3812 -26.1627 10.2123 0.659338 -0.97256
lowerback 1.41255 0.90976 -1.22439
upperback 0.440706 1.19945 0.853599
thorax -0.383779 0.599839 1.5391
lowerneck -16.6824 0.063744 -2.06329
upperneck 13.9363 1.07759 -2.79289
head 7.01777 0.147519 -0.45693
rclavicle -9.0447e-015 2.78299e-015
rhumerus -41.0158 -34.4939 -59.7957
rradius 15.003
rwrist 4.29504
rhand -14.7625 17.4016
rfingers 7.12502
rthumb 11.3938 -12.2688
lclavicle -9.0447e-015 2.78299e-015
lhumerus -36.3866 10.9365 80.4155
lradius 29.9818
lwrist -6.8991
lhand -3.4041 41.2652
lfingers 7.12502
lthumb 22.3261 69.9953
rfemur 8.40914 -2.20749 25.417
rtibia 22.8497
rfoot -4.65434 -9.09988
rtoes -1.11694
lfemur -33.2224 -1.81246 -22.4033
ltibia 24.5424
lfoot -10.0728 -3.12658
ltoes 8.37869
262
root 0.0245699 17.3934 -26.0115 9.94529 0.64709 -0.714032
lowerback 1.34916 0.841477 -1.32935
upperback 0.405593 1.10657 0.622147
thorax -0.37829 0.553598 1.36323
lowerneck -16.7922 0.155015 -1.74042
upperneck 14.4705 1.18563 -3.0232
head 7.21463 0.185025 -0.574131
rclavicle 1.32937e-014 7.20594e-015
rhumerus -41.0372 -34.1152 -60.1258
rradius 15.0404
rwrist 3.93239
rhand -14.5143 17.6497
rfingers 7.12502
rthumb 11.6331 -12.0074
lclavicle 1.32937e-014 7.20594e-015
lhumerus -36.4435 11.3496 79.9051
lradius 29.6778
lwrist -7.1939
lhand -3.20934 41.0595
lfingers 7.12502
lthumb 22.513 69.767
rfemur 7.582 -2.4124 24.8886
rtibia 25.3462
rfoot -3.3721 -8.83081
rtoes -2.61178
lfemur -32.2641 -1.799 -22.8523
ltibia 24.3333
lfoot -10.5358 -3.40726
ltoes 7.72331
263
root 0.0374497 17.4123 -25.8812 9.85242 0.706082 -0.305952
lowerback 1.20679 0.920629 -1.83272
upperback 0.430301 1.20773 0.539588
thorax -0.285175 0.60322 1.56175
lowerneck -16.8723 -0.0449464 -2.17122
upperneck 14.8248 0.940728 -2.50622
head 7.3376 0.0855916 -0.362749
rclavicle -6.02566e-015 1.49089e-015
rhumerus -40.8083 -33.2598 -60.6103
rradius 15.3781
rwrist 2.86031
rhand -14.2071 17.912
rfingers 7.12502
rthumb 11.9294 -11.7282
lclavicle -6.02566e-015 1.49089e-015
lhumerus -36.346 11.1546 80.0917
lradius 29.8
lwrist -7.18832
lhand -2.86499 41.2388
lfingers 7.12502
lthumb 22.8435 69.906
rfemur 6.51874 -2.67652 24.2231
rtibia 27.9446
rfoot -1.94734 -8.74359
rtoes -1.63377
lfemur -31.5009 -2.11828 -23.3129
ltibia 24.1377
lfoot -10.6891 -3.38934
ltoes 8.95097
264
root 0.0559114 17.4277 -25.7351 9.56342 1.09488 -0.051496
lowerback 1.3625 0.849743 -1.86667
upperback 0.281729 1.10803 0.353393
thorax -0.51744 0.556818 1.38771
lowerneck -16.2867 0.0254287 -2.29306
upperneck 14.7355 0.959341 -2.04354
head 7.2035 0.137179 -0.188992
rclavicle 1.36664e-014 -2.28602e-015
rhumerus -41.3985 -33.1479 -60.3737
rradius 15.706
rwrist 2.43392
rhand -13.5201 18.1762
rfingers 7.12502
rthumb 12.5918 -11.4243
lclavicle 1.36664e-014 -2.28602e-015
lhumerus -36.6459 10.2829 80.2047
lradius 30.0765
lwrist -6.6421
lhand -3.24564 41.7035
lfingers 7.12502
lthumb 22.4782 70.4153
rfemur 5.7044 -3.70447 23.5805
rtibia 30.6175
rfoot -0.533017 -8.16996
rtoes 1.22629
lfemur -30.5786 -1.96581 -23.9345
ltibia 23.869
lfoot -11.0747 -3.815
ltoes 7.71833
265
root 0.0774437 17.4486 -25.6076 9.50156 1.44195 0.139817
lowerback 1.27233 0.74946 -1.89362
upperback 0.291329 0.975264 0.236078
thorax -0.450443 0.4897 1.28655
lowerneck -16.2598 0.00615821 -2.24894
upperneck 14.7424 0.927434 -2.07461
head 7.20146 0.121599 -0.209778
rclavicle -4.83916e-015 7.82715e-015
rhumerus -41.2631 -33.1433 -60.5252
rradius 15.9885
rwrist 2.33664
rhand -13.4341 17.751
rfingers 7.12502
rthumb 12.6747 -11.8444
lclavicle -4.83916e-015 7.82715e-015
lhumerus -36.3355 10.76 79.91
lradius 29.7268
lwrist -7.08577
lhand -3.30373 42.0133
lfingers 7.12502
lthumb 22.4224 70.7318
rfemur 4.38106 -4.332 23.094
rtibia 33.4411
rfoot 0.879841 -7.71523
rtoes 4.62474
lfemur -29.804 -1.91071 -24.3688
ltibia 23.4743
lfoot -11.3595 -4.33995
ltoes 10.2813
266
root 0.0999483 17.4629 -25.483 9.34303 1.17502 0.428533
lowerback 1.17327 0.84896 -2.1725
upperback 0.384066 1.10709 0.120167
thorax -0.307738 0.55353 1.32423
lowerneck -16.3676 0.035613 -2.35422
upperneck 15.0021 0.998866 -2.04524
head 7.30465 0.147498 -0.175476
rclavicle 1.03337e-014 -6.36111e-015
rhumerus -41.0312 -33.5023 -60.2548
rradius 15.72
rwrist 2.37818
rhand -12.9612 18.1468
rfingers 7.12502
rthumb 13.1306 -11.4198
lclavicle 1.03337e-014 -6.36111e-015
lhumerus -36.2579 10.4859 80.0997
lradius 30.2696
lwrist -6.89814
lhand -2.90908 40.9858
lfingers 7.12502
lthumb 22.8012 69.6581
rfemur 3.07524 -4.57276 22.3595
rtibia 36.3228
rfoot 2.5845 -7.15145
rtoes 4.299
lfemur -28.9262 -1.77997 -24.8732
ltibia 23.0691
lfoot -11.4179 -4.12926
ltoes 7.65989
